<svg width="60" height="60" viewBox="0 0 60 60" fill="none" xmlns="http://www.w3.org/2000/svg">
<g clip-path="url(#clip0_1_128)">
<g clip-path="url(#clip1_1_128)">
<path fill-rule="evenodd" clip-rule="evenodd" d="M28.4149 55.2118C28.7576 55.7575 29.3576 56.0901 30.0029 56.0901C30.6481 56.0901 31.2481 55.7575 31.5908 55.2118C36.6659 47.1201 52.36 22.0958 55.9621 16.3521C56.4017 15.6506 56.3294 14.7436 55.7833 14.12C53.7178 11.7625 48.7627 6.10437 47.0927 4.19741C46.7364 3.79245 46.2222 3.55859 45.6822 3.55859C41.0554 3.55859 18.9504 3.55859 14.3236 3.55859C13.7836 3.55859 13.2694 3.79245 12.9131 4.19741C11.243 6.10437 6.28796 11.7625 4.22244 14.12C3.67637 14.7436 3.60413 15.6506 4.04369 16.3521C7.64579 22.0958 23.3399 47.1201 28.4149 55.2118Z" fill="#FDF0EA"/>
<path fill-rule="evenodd" clip-rule="evenodd" d="M3.83826 15.1872H56.1919C56.1156 14.9371 55.9868 14.7007 55.8067 14.4945C53.7407 12.1371 48.7819 6.4779 47.1112 4.57069C46.756 4.16424 46.2407 3.93164 45.7004 3.93164C41.0731 3.93164 18.9571 3.93164 14.3298 3.93164C13.7894 3.93164 13.2743 4.16424 12.9191 4.57069C11.2482 6.4779 6.28948 12.1371 4.22345 14.4945C4.04336 14.7007 3.91454 14.9371 3.83826 15.1872Z" fill="white"/>
<path fill-rule="evenodd" clip-rule="evenodd" d="M22.5113 15.1872L30.0151 3.93164H14.3297C14.1509 3.93164 13.9746 3.95665 13.8058 4.00668L22.5113 15.1872ZM30.0151 3.93164L37.5188 15.1872L46.2244 4.00668C46.0556 3.95665 45.8792 3.93164 45.7004 3.93164H30.0151Z" fill="#FDF0EA"/>
<path fill-rule="evenodd" clip-rule="evenodd" d="M37.5188 15.1872H22.5114L30.0151 3.93164L37.5188 15.1872Z" fill="white"/>
<path fill-rule="evenodd" clip-rule="evenodd" d="M30.0151 56.4731L22.5114 15.1875H37.5188L30.0151 56.4731Z" fill="white"/>
<path fill-rule="evenodd" clip-rule="evenodd" d="M15.0049 48.9917L16.4857 51.2637L18.7576 52.7443L16.4857 54.2238L15.0049 56.4957L13.5256 54.2238L11.2537 52.7443L13.5256 51.2637L15.0049 48.9917Z" fill="#FDF0EA"/>
<path fill-rule="evenodd" clip-rule="evenodd" d="M7.50498 33.9917L8.98576 36.2637L11.2576 37.7443L8.98576 39.2238L7.50498 41.4957L6.02551 39.2238L3.75366 37.7443L6.02551 36.2637L7.50498 33.9917Z" fill="#FDF0EA"/>
<path fill-rule="evenodd" clip-rule="evenodd" d="M51.2543 40.2412L52.7351 42.5131L55.0069 43.9938L52.7351 45.4733L51.2543 47.7452L49.7748 45.4733L47.503 43.9938L49.7748 42.5131L51.2543 40.2412Z" fill="#FDF0EA"/>
<path d="M23.1338 48.1443C23.8246 48.1443 24.3845 47.5844 24.3845 46.8937C24.3845 46.203 23.8246 45.6431 23.1338 45.6431C22.4431 45.6431 21.8832 46.203 21.8832 46.8937C21.8832 47.5844 22.4431 48.1443 23.1338 48.1443Z" fill="#EB662B"/>
<path fill-rule="evenodd" clip-rule="evenodd" d="M5.339 16.438H21.4758L28.5131 53.3802L26.317 49.8797C25.9506 49.2945 25.1777 49.1182 24.5936 49.4845C24.0083 49.851 23.832 50.6238 24.1985 51.2079C24.1985 51.2079 26.5522 54.961 27.3662 56.2591C27.9378 57.1709 28.9382 57.7236 30.0151 57.7236C31.0919 57.7236 32.0923 57.1709 32.6639 56.2591L57.0449 17.3922C57.7789 16.2229 57.6576 14.7096 56.7472 13.6704C54.6811 11.3129 49.7237 5.65386 48.0528 3.74667C47.4588 3.07007 46.6021 2.68115 45.7004 2.68115H14.3298C13.428 2.68115 12.5713 3.07007 11.9773 3.74667C10.3065 5.65386 5.34901 11.3129 3.28297 13.6704C2.37252 14.7096 2.25121 16.2229 2.98532 17.3922L20.0626 44.6159C20.4302 45.2011 21.202 45.3774 21.7872 45.0111C22.3712 44.6446 22.5488 43.8718 22.1824 43.2877L5.339 16.438ZM53.6556 13.9368L46.4658 5.73142L40.0776 13.9368H48.7745C49.4648 13.9368 50.0251 14.4971 50.0251 15.1875C50.0251 15.8777 49.4648 16.438 48.7745 16.438H38.5543L31.517 53.3802L54.6912 16.438H52.5263C51.836 16.438 51.2758 15.8777 51.2758 15.1875C51.2758 14.4971 51.836 13.9368 52.5263 13.9368H53.6556ZM36.008 16.438H24.0221L30.0151 47.8987L36.008 16.438ZM6.37452 13.9368H19.9525L13.5643 5.73142L6.37452 13.9368ZM24.8488 13.9368H35.1814L30.0151 6.18666L24.8488 13.9368ZM43.7232 5.1824H32.3525L37.5977 13.05L43.7232 5.1824ZM27.6776 5.1824H16.307L22.4326 13.05L27.6776 5.1824Z" fill="#EB662B"/>
<path fill-rule="evenodd" clip-rule="evenodd" d="M16.0526 48.3086C15.8224 47.9545 15.4288 47.7412 15.0049 47.7412C14.5824 47.7412 14.1889 47.9545 13.9572 48.3086L12.6212 50.3593L10.5705 51.6967C10.2164 51.9269 10.0019 52.3205 10.0019 52.7444C10.0019 53.1669 10.2164 53.5604 10.5705 53.7921L12.6212 55.1281L13.9572 57.1789C14.1889 57.5329 14.5824 57.7474 15.0049 57.7474C15.4288 57.7474 15.8224 57.5329 16.0526 57.1789L17.39 55.1281L19.4407 53.7921C19.7948 53.5604 20.008 53.1669 20.008 52.7444C20.008 52.3205 19.7948 51.9269 19.4407 51.6967L17.39 50.3593L16.0526 48.3086ZM15.0049 51.2819L15.438 51.9467C15.5328 52.0915 15.6578 52.2165 15.8026 52.3113L16.4674 52.7444L15.8026 53.176C15.6578 53.2708 15.5328 53.3959 15.438 53.542L15.0049 54.2054L14.5732 53.542C14.4785 53.3959 14.3534 53.2708 14.2073 53.176L13.5439 52.7444L14.2073 52.3113C14.3534 52.2165 14.4785 52.0915 14.5732 51.9467L15.0049 51.2819Z" fill="#EB662B"/>
<path fill-rule="evenodd" clip-rule="evenodd" d="M8.55268 33.3086C8.32234 32.9545 7.92878 32.7412 7.50494 32.7412C7.08244 32.7412 6.68887 32.9545 6.45721 33.3086L5.12122 35.3593L3.0705 36.6967C2.71643 36.9269 2.50188 37.3205 2.50188 37.7444C2.50188 38.1669 2.71643 38.5604 3.0705 38.7921L5.12122 40.1281L6.45721 42.1789C6.68887 42.5329 7.08244 42.7474 7.50494 42.7474C7.92878 42.7474 8.32234 42.5329 8.55268 42.1789L9.88999 40.1281L11.9407 38.7921C12.2948 38.5604 12.508 38.1669 12.508 37.7444C12.508 37.3205 12.2948 36.9269 11.9407 36.6967L9.88999 35.3593L8.55268 33.3086ZM7.50494 36.2819L7.93799 36.9467C8.03276 37.0915 8.1578 37.2165 8.3026 37.3113L8.9673 37.7444L8.3026 38.176C8.1578 38.2708 8.03276 38.3959 7.93799 38.542L7.50494 39.2054L7.07322 38.542C6.97844 38.3959 6.8534 38.2708 6.7073 38.176L6.04391 37.7444L6.7073 37.3113C6.8534 37.2165 6.97844 37.0915 7.07322 36.9467L7.50494 36.2819Z" fill="#EB662B"/>
<path fill-rule="evenodd" clip-rule="evenodd" d="M52.3021 39.5581C52.0717 39.204 51.6781 38.9907 51.2543 38.9907C50.8318 38.9907 50.4383 39.204 50.2066 39.5581L48.8706 41.6088L46.8199 42.946C46.4658 43.1764 46.2512 43.57 46.2512 43.9939C46.2512 44.4164 46.4658 44.8099 46.8199 45.0416L48.8706 46.3776L50.2066 48.4282C50.4383 48.7824 50.8318 48.9969 51.2543 48.9969C51.6781 48.9969 52.0717 48.7824 52.3021 48.4282L53.6394 46.3776L55.6901 45.0416C56.0442 44.8099 56.2574 44.4164 56.2574 43.9939C56.2574 43.57 56.0442 43.1764 55.6901 42.946L53.6394 41.6088L52.3021 39.5581ZM51.2543 42.5314L51.6874 43.1961C51.7822 43.341 51.9072 43.466 52.052 43.5608L52.7167 43.9939L52.052 44.4255C51.9072 44.5203 51.7822 44.6454 51.6874 44.7915L51.2543 45.4549L50.8226 44.7915C50.7278 44.6454 50.6028 44.5203 50.4566 44.4255L49.7933 43.9939L50.4566 43.5608C50.6028 43.466 50.7278 43.341 50.8226 43.1961L51.2543 42.5314Z" fill="#EB662B"/>
</g>
</g>
<defs>
<clipPath id="clip0_1_128">
<rect width="60" height="60" fill="white"/>
</clipPath>
<clipPath id="clip1_1_128">
<rect width="60" height="60" fill="white"/>
</clipPath>
</defs>
</svg>
