<svg width="60" height="60" viewBox="0 0 60 60" fill="none" xmlns="http://www.w3.org/2000/svg">
<g clip-path="url(#clip0_1_113)">
<g clip-path="url(#clip1_1_113)">
<path fill-rule="evenodd" clip-rule="evenodd" d="M30.0601 3.88672C21.0806 3.88672 13.8019 11.1654 13.8019 20.1449C13.8107 25.8227 16.7759 31.0428 21.5496 33.973C22.3149 34.4433 23.1191 35.4688 23.2954 36.3492L23.7369 38.5591C23.922 39.4833 24.7412 40.1549 25.6829 40.1549H34.4373C35.379 40.1549 36.1981 39.4833 36.3832 38.5591L36.8247 36.3492C37.001 35.4688 37.8052 34.4433 38.5706 33.9743C43.3442 31.0428 46.3094 25.8227 46.3182 20.1449C46.3182 11.1654 39.0396 3.88672 30.0601 3.88672Z" fill="#FDF0EA"/>
<path fill-rule="evenodd" clip-rule="evenodd" d="M23.6469 47.9463L36.4633 48.0113L35.3715 54.5621C35.1939 55.6264 34.2647 56.413 33.1866 56.413H26.9335C25.8555 56.413 24.9262 55.6264 24.7486 54.5621L23.6469 47.9463Z" fill="white"/>
<path fill-rule="evenodd" clip-rule="evenodd" d="M23.1817 45.1577H36.9385C37.2699 45.1577 37.5889 45.289 37.8227 45.5241C38.0578 45.758 38.1892 46.0769 38.1892 46.4083V47.6589C38.1892 48.3455 37.6251 48.9095 36.9385 48.9095H23.1817C22.8502 48.9095 22.5313 48.7782 22.2975 48.5431C22.0623 48.3092 21.931 47.9903 21.931 47.6589V46.4083C21.931 45.7217 22.4951 45.1577 23.1817 45.1577Z" fill="#FDF0EA"/>
<path fill-rule="evenodd" clip-rule="evenodd" d="M30.0601 3.88672C26.9523 3.88672 24.4323 11.1654 24.4323 20.1449C24.4348 25.8227 25.4615 31.0428 27.1148 33.973C27.3787 34.4433 27.6576 35.4688 27.7189 36.3492L27.8715 38.5591C27.9353 39.4833 28.2191 40.1549 28.5443 40.1549H31.5758C31.901 40.1549 32.1849 39.4833 32.2487 38.5591L32.4012 36.3492C32.4625 35.4688 32.7414 34.4433 33.0053 33.9743C34.6586 31.0428 35.6854 25.8227 35.6879 20.1449C35.6879 11.1654 33.1679 3.88672 30.0601 3.88672Z" fill="white"/>
<path fill-rule="evenodd" clip-rule="evenodd" d="M11.4733 38.6093C10.7929 38.0127 9.91498 37.6538 8.95575 37.6538C6.79717 37.6538 5.04755 39.4735 5.04755 41.7183C5.04755 43.9632 6.79717 45.7829 8.95575 45.7829H14.4272C16.1543 45.7829 17.5538 44.3271 17.5538 42.5312C17.5538 40.7353 16.1543 39.2796 14.4272 39.2796C13.7594 39.2796 13.1391 39.4972 12.6313 39.8687L11.4733 38.6093Z" fill="#FDF0EA"/>
<path fill-rule="evenodd" clip-rule="evenodd" d="M51.8247 30.1314C52.3012 29.7137 52.9165 29.4624 53.5881 29.4624C55.0989 29.4624 56.3232 30.7368 56.3232 32.3075C56.3232 33.8783 55.0989 35.1527 53.5881 35.1527H49.7574C48.5493 35.1527 47.5688 34.1334 47.5688 32.8766C47.5688 31.6197 48.5493 30.6004 49.7574 30.6004C50.2252 30.6004 50.6591 30.753 51.0143 31.0131L51.8247 30.1314Z" fill="white"/>
<path fill-rule="evenodd" clip-rule="evenodd" d="M22.7414 50.1212L23.5156 54.7685C23.7932 56.4319 25.2464 57.6637 26.9335 57.6637H33.1866C34.8737 57.6637 36.327 56.4319 36.6046 54.7685L37.3787 50.12C38.5443 49.9099 39.4398 48.8806 39.4398 47.6587V46.4081C39.4398 45.7453 39.1759 45.1087 38.7069 44.6397C38.2379 44.1707 37.6013 43.9069 36.9385 43.9069H36.3132V40.8028C36.966 40.3376 37.4438 39.6335 37.6089 38.8043L38.0516 36.5945C38.1679 36.0129 38.7194 35.3501 39.2247 35.0399C44.366 31.8834 47.5601 26.2618 47.5688 20.1475V20.145C47.5688 10.4751 39.7299 2.63623 30.0601 2.63623C20.3902 2.63623 12.5513 10.4751 12.5513 20.145V20.1462C12.5526 20.714 12.5801 21.2756 12.6351 21.8333C12.7027 22.5199 13.3142 23.0227 14.0021 22.9551C14.6887 22.8876 15.1914 22.2761 15.1239 21.5882C15.0776 21.1117 15.0538 20.6302 15.0526 20.1437C15.0526 13.2553 19.6936 7.45239 26.0193 5.68776C24.3435 8.69926 23.1816 14.0419 23.1816 20.145V20.1462C23.1854 26.0792 24.2985 31.5257 26.0243 34.5884C26.2307 34.9524 26.4233 35.7528 26.4708 36.4356L26.6234 38.6455C26.6296 38.7343 26.6384 38.8206 26.6471 38.9044H25.6829C25.334 38.9044 25.0313 38.6567 24.9638 38.3141L24.5223 36.1042C24.2859 34.9249 23.2292 33.5379 22.2037 32.9076C20.1339 31.637 18.4318 29.8986 17.2087 27.8701C16.8522 27.2785 16.0818 27.0885 15.4915 27.4449C14.9 27.8013 14.7099 28.5704 15.0663 29.162C16.4933 31.5282 18.4793 33.5567 20.8955 35.0399C21.4007 35.3501 21.9523 36.0129 22.0686 36.5945L22.5113 38.8043C22.6764 39.6335 23.1541 40.3376 23.807 40.8028V43.9069H23.1816C21.8097 43.9069 20.6804 45.0362 20.6804 46.4081V47.6587C20.6804 48.3216 20.9443 48.9581 21.4133 49.4271C21.7772 49.791 22.2412 50.0312 22.7414 50.1212ZM34.8375 50.16H34.396C33.7057 50.16 33.1454 49.5997 33.1454 48.9094C33.1454 48.219 33.7057 47.6587 34.396 47.6587H36.9385V46.5082C36.8585 46.4881 36.7447 46.4081 36.9385 46.4081H23.1816V47.5587C23.2617 47.5787 23.3755 47.6587 23.1816 47.6587H30.3777C31.0668 47.6587 31.6284 48.219 31.6284 48.9094C31.6284 49.5997 31.0668 50.16 30.3777 50.16H25.2827L25.983 54.3571C26.0593 54.8198 26.4645 55.1625 26.9335 55.1625H33.1866C33.6556 55.1625 34.0608 54.8198 34.1371 54.3571L34.8375 50.16ZM28.8095 43.9069V41.4056H26.3082V43.9069H28.8095ZM33.812 43.9069V41.4056H31.3107V43.9069H33.812ZM30.0601 5.13748C30.3865 5.13748 30.6779 5.33508 30.9718 5.61772C31.4395 6.0667 31.8635 6.73202 32.2524 7.55744C33.5931 10.3951 34.4373 14.9786 34.4373 20.145C34.4348 25.5677 33.4943 30.5602 31.916 33.3591C31.5921 33.9356 31.2282 35.1837 31.1544 36.263L31.0005 38.4729C30.9918 38.6105 30.963 38.7668 30.9318 38.9044H29.1884C29.1571 38.7668 29.1284 38.6105 29.1196 38.4729L28.9658 36.263C28.892 35.1837 28.5281 33.9356 28.2042 33.3591C26.6259 30.5602 25.6854 25.5677 25.6829 20.145C25.6829 14.9786 26.5271 10.3951 27.8677 7.55744C28.2567 6.73202 28.6806 6.0667 29.1484 5.61772C29.4423 5.33508 29.7337 5.13748 30.0601 5.13748ZM34.1009 5.68776C35.7767 8.69926 36.9385 14.0419 36.9385 20.145V20.1462C36.936 26.0792 35.8217 31.5257 34.0958 34.5884C33.8895 34.9524 33.6969 35.7528 33.6494 36.4356L33.4968 38.6455C33.4905 38.7343 33.4818 38.8206 33.473 38.9044H34.4373C34.7862 38.9044 35.0888 38.6567 35.1564 38.3141L35.5979 36.1042C35.8342 34.9249 36.891 33.5379 37.9153 32.9076C42.3225 30.2025 45.0588 25.3851 45.0676 20.1437C45.0676 13.2565 40.4265 7.45239 34.1009 5.68776Z" fill="#EB662B"/>
<path fill-rule="evenodd" clip-rule="evenodd" d="M12.395 37.764C12.3637 37.7302 12.3324 37.6989 12.2987 37.6689C11.3957 36.8785 10.2289 36.4033 8.95576 36.4033C6.1206 36.4033 3.79694 38.7695 3.79694 41.7184C3.79694 44.6674 6.1206 47.0336 8.95576 47.0336H14.4272C16.8309 47.0336 18.8044 45.0313 18.8044 42.5313C18.8044 40.0313 16.8309 38.0291 14.4272 38.0291C13.8895 38.0291 13.3742 38.1291 12.8977 38.3117L12.395 37.764ZM10.6028 39.5098L11.7109 40.7154C12.1411 41.1844 12.8552 41.2544 13.3692 40.8793C13.6694 40.6604 14.0333 40.5303 14.4272 40.5303C15.4778 40.5303 16.3032 41.4395 16.3032 42.5313C16.3032 43.6231 15.4778 44.5323 14.4272 44.5323H8.95576C7.47377 44.5323 6.29819 43.2592 6.29819 41.7184C6.29819 40.1777 7.47377 38.9045 8.95576 38.9045C9.57732 38.9045 10.1489 39.1309 10.5991 39.5073L10.6028 39.5098Z" fill="#EB662B"/>
<path fill-rule="evenodd" clip-rule="evenodd" d="M51.0005 29.1907L50.7166 29.4883C50.4127 29.3983 50.0901 29.3495 49.7574 29.3495C47.8715 29.3495 46.3182 30.9153 46.3182 32.8763C46.3182 34.8373 47.8715 36.403 49.7574 36.403H53.5881C55.7754 36.403 57.5738 34.5821 57.5738 32.3073C57.5738 30.0324 55.7754 28.2114 53.5881 28.2114C52.6026 28.2114 51.6984 28.5779 51.0005 29.1907ZM52.6964 31.0316C52.9427 30.8328 53.2516 30.7127 53.5881 30.7127C54.421 30.7127 55.0726 31.4393 55.0726 32.3073C55.0726 33.1752 54.421 33.9018 53.5881 33.9018H49.7574C49.2259 33.9018 48.8194 33.4291 48.8194 32.8763C48.8194 32.3235 49.2259 31.8508 49.7574 31.8508C49.9512 31.8508 50.1301 31.9145 50.2764 32.0221C50.7904 32.3985 51.5045 32.3273 51.936 31.8595L52.6926 31.0341L52.6964 31.0316Z" fill="#EB662B"/>
<path d="M14.5951 26.3587C15.2861 26.3587 15.8462 25.7985 15.8462 25.1075C15.8462 24.4165 15.2861 23.8564 14.5951 23.8564C13.9041 23.8564 13.3439 24.4165 13.3439 25.1075C13.3439 25.7985 13.9041 26.3587 14.5951 26.3587Z" fill="#EB662B"/>
</g>
</g>
<defs>
<clipPath id="clip0_1_113">
<rect width="60" height="60" fill="white"/>
</clipPath>
<clipPath id="clip1_1_113">
<rect width="60" height="60" fill="white"/>
</clipPath>
</defs>
</svg>
