<svg width="60" height="60" viewBox="0 0 60 60" fill="none" xmlns="http://www.w3.org/2000/svg">
<g clip-path="url(#clip0_1_146)">
<g clip-path="url(#clip1_1_146)">
<path d="M38.7675 31.7461V55.0714C38.7675 56.0689 37.6453 56.6924 36.7725 56.0689L30.0394 51.2061L23.3063 56.0689C22.4335 56.6924 21.3113 56.0689 21.3113 55.0714V31.7461H38.7675Z" fill="white"/>
<path d="M30.0394 38.7377C39.6802 38.7377 47.4956 30.9223 47.4956 21.2815C47.4956 11.6406 39.6802 3.8252 30.0394 3.8252C20.3986 3.8252 12.5831 11.6406 12.5831 21.2815C12.5831 30.9223 20.3986 38.7377 30.0394 38.7377Z" fill="#FDF0EA"/>
<path d="M31.2863 12.8026L32.5332 16.6679C32.6579 17.1666 33.1566 17.5407 33.7801 17.5407H37.7701C39.017 17.5407 39.5157 19.037 38.5182 19.7851L35.2763 22.1542C34.7776 22.5282 34.6529 23.027 34.7776 23.5257L36.0244 27.391C36.3985 28.5132 35.0269 29.5107 34.1541 28.7626L30.9123 26.3935C30.4135 26.0195 29.9148 26.0195 29.416 26.3935L26.1741 28.7626C25.1766 29.5107 23.9297 28.5132 24.3038 27.391L25.5507 23.5257C25.6754 23.027 25.5507 22.4036 25.0519 22.1542L21.8101 19.7851C20.8126 19.037 21.3113 17.5407 22.5582 17.5407H26.5482C27.047 17.5407 27.5457 17.1666 27.7951 16.6679L29.042 12.8026C29.1666 11.6804 30.9123 11.6804 31.2863 12.8026Z" fill="white"/>
<path d="M13.293 27.5104C13.9832 27.5104 14.5428 26.9508 14.5428 26.2605C14.5428 25.5703 13.9832 25.0107 13.293 25.0107C12.6027 25.0107 12.0431 25.5703 12.0431 26.2605C12.0431 26.9508 12.6027 27.5104 13.293 27.5104Z" fill="#EB662B"/>
<path fill-rule="evenodd" clip-rule="evenodd" d="M20.2562 37.3071C17.5349 35.5862 15.2875 33.185 13.7542 30.3411C13.4266 29.7345 13.6542 28.9754 14.262 28.6477C14.8698 28.3201 15.6289 28.5464 15.9566 29.1542C18.6967 34.2355 24.0669 37.691 30.24 37.691C39.1907 37.691 46.4568 30.4249 46.4568 21.4754C46.4568 17.3821 44.9373 13.6415 42.431 10.7863C41.9758 10.2686 42.0284 9.47693 42.5461 9.0217C43.0651 8.56647 43.8568 8.61776 44.312 9.13677C47.2035 12.4322 48.9581 16.7506 48.9581 21.4754C48.9581 28.1363 45.4701 33.9892 40.2237 37.3071V50.2498C40.2237 50.9401 39.6634 51.5004 38.9731 51.5004C38.2827 51.5004 37.7225 50.9401 37.7225 50.2498V38.6353C35.4313 39.637 32.9 40.1923 30.24 40.1923C27.5799 40.1923 25.0486 39.637 22.7575 38.6353V55.2861C22.7575 55.2786 22.77 55.2685 22.7763 55.266L29.5084 50.4049C29.9448 50.0885 30.5351 50.0885 30.9716 50.4049C30.9716 50.4049 37.7099 55.2711 37.7037 55.2673C37.7149 55.2748 37.7225 55.2986 37.7225 55.2861V54.0017C37.7225 53.3113 38.2827 52.7511 38.9731 52.7511C39.6634 52.7511 40.2237 53.3113 40.2237 54.0017V55.2861C40.2237 57.2796 37.9938 58.5477 36.2505 57.3021L36.2455 57.2983L30.24 52.9612L24.2345 57.2983L24.2295 57.3021C22.4861 58.5477 20.2562 57.2796 20.2562 55.2861V37.3071ZM14.0656 22.6472C14.1144 23.3351 13.5954 23.9342 12.9075 23.9829C12.2185 24.033 11.6194 23.514 11.5706 22.8249C11.5381 22.3796 11.5219 21.9294 11.5219 21.4754C11.5219 11.144 19.9098 2.75732 30.24 2.75732C34.227 2.75732 37.9251 4.00672 40.9628 6.13528C41.5281 6.53048 41.6657 7.31087 41.2692 7.87615C40.8728 8.44143 40.0924 8.579 39.5271 8.1838C36.8958 6.34038 33.6929 5.25857 30.24 5.25857C21.2892 5.25857 14.0231 12.5247 14.0231 21.4754C14.0231 21.8694 14.0381 22.2595 14.0656 22.6472ZM26.7069 16.4817C26.7282 16.4642 26.7983 16.4054 26.8458 16.3454C26.8458 16.3454 28.0189 12.7073 28.0189 12.7123C28.1789 11.7555 28.8555 11.164 29.6884 10.9664C30.8127 10.6988 32.2285 11.2566 32.6762 12.601L33.9243 16.4717C33.9418 16.4767 33.9656 16.4817 33.9831 16.4817H37.9751C39.2157 16.4817 40.0686 17.2483 40.3788 18.1788C40.6889 19.1092 40.4663 20.2335 39.4683 20.9827C39.4683 20.9827 36.228 23.3501 36.2205 23.3564C36.2055 23.3701 36.1942 23.3851 36.193 23.4039C36.193 23.4039 37.4186 27.2045 37.4148 27.1933C37.7912 28.3201 37.3122 29.3919 36.4981 29.9859C35.6564 30.6012 34.4971 30.6963 33.5866 29.9471L30.3688 27.596L30.365 27.5922L30.36 27.596L27.1121 29.9684C25.0886 31.4729 22.5561 29.4669 23.3103 27.2045C23.3103 27.2045 24.5384 23.3989 24.5384 23.3939C24.5396 23.3889 24.5396 23.3839 24.5396 23.3789L21.2617 20.9827L21.2555 20.9789C20.2625 20.2336 20.0411 19.1092 20.3513 18.1788C20.6614 17.2483 21.5131 16.4817 22.7537 16.4817H26.7069ZM22.7637 18.9829C22.9488 19.1192 25.9216 21.2903 25.9166 21.2878C26.8683 21.8344 27.2109 23.0274 26.9621 24.0242L26.9521 24.0642L25.7177 27.8911C26.2392 27.5097 28.8755 25.5825 28.8755 25.5825C29.3683 25.216 29.871 25.0585 30.365 25.0585C30.8578 25.0585 31.3605 25.216 31.8545 25.5825L35.0124 27.8899L33.778 24.0642L33.768 24.0242C33.5254 23.0525 33.758 22.077 34.736 21.3428C34.736 21.3428 37.6887 19.1855 37.9651 18.9829H33.9831C32.7475 18.9829 31.8008 18.1888 31.5344 17.2108L30.365 13.584L29.1557 17.3333L29.1132 17.4184C28.6479 18.3476 27.6762 18.9829 26.747 18.9829H22.7637Z" fill="#EB662B"/>
</g>
</g>
<defs>
<clipPath id="clip0_1_146">
<rect width="60" height="60" fill="white"/>
</clipPath>
<clipPath id="clip1_1_146">
<rect width="60" height="60" fill="white"/>
</clipPath>
</defs>
</svg>
