<svg width="60" height="60" viewBox="0 0 60 60" fill="none" xmlns="http://www.w3.org/2000/svg">
<g clip-path="url(#clip0_1_104)">
<g clip-path="url(#clip1_1_104)">
<path fill-rule="evenodd" clip-rule="evenodd" d="M56.3682 31.1818C56.3682 31.996 55.8417 32.7176 55.0663 32.9665C53.2817 33.498 51.991 35.1588 51.991 37.1186C51.991 39.0783 53.2817 40.7391 55.0575 41.2956C55.8217 41.542 56.3407 42.2524 56.3407 43.0553C56.3682 43.9095 56.3682 44.9737 56.3682 45.8729C56.3682 46.9084 55.5278 47.7489 54.4923 47.7489C46.3219 47.7489 13.8882 47.7489 5.71792 47.7489C4.6824 47.7489 3.84198 46.9084 3.84198 45.8729C3.84198 44.9737 3.84198 43.9095 3.84198 43.0553C3.84198 42.2411 4.36849 41.5195 5.14388 41.2706C6.92852 40.7391 8.21917 39.0783 8.21917 37.1186C8.21917 35.1588 6.92853 33.498 5.15264 32.9415C4.38851 32.6951 3.8695 31.9847 3.8695 31.1818C3.84198 30.5815 3.84198 29.8987 3.84198 29.2984C3.84198 28.4842 4.36849 27.7626 5.14388 27.5138C6.92852 26.9822 8.21917 25.3214 8.21917 23.3617C8.21917 21.4019 6.92853 19.7411 5.15264 19.1846C4.38851 18.9382 3.8695 18.2278 3.8695 17.4249C3.84198 16.5708 3.84198 15.5065 3.84198 14.6073C3.84198 13.5718 4.6824 12.7314 5.71792 12.7314H54.4923C55.5278 12.7314 56.3682 13.5718 56.3682 14.6073V17.4249C56.3682 18.2391 55.8417 18.9607 55.0663 19.2096C53.2817 19.7411 51.991 21.4019 51.991 23.3617C51.991 25.3214 53.2817 26.9822 55.0575 27.5388C55.8217 27.7851 56.3407 28.4955 56.3407 29.2984C56.3682 29.8987 56.3682 30.5815 56.3682 31.1818Z" fill="#FDF0EA"/>
<path fill-rule="evenodd" clip-rule="evenodd" d="M32.1639 23.6148C32.5091 23.0842 33.1001 22.7646 33.7332 22.7646C34.3664 22.7646 34.9573 23.0842 35.3025 23.6148C35.6357 24.1229 35.9568 24.6158 36.195 24.9806C36.4467 25.365 36.8311 25.6439 37.2743 25.7645C37.6949 25.8776 38.2617 26.0314 38.8482 26.1912C39.4602 26.3555 39.9456 26.8183 40.1416 27.4213C40.3376 28.0228 40.2155 28.683 39.819 29.176C39.4376 29.6493 39.0683 30.1077 38.7954 30.4468C38.5075 30.8041 38.3612 31.2563 38.3839 31.7161C38.405 32.1503 38.4336 32.7382 38.4637 33.3443C38.4954 33.9774 38.206 34.5819 37.6934 34.9543C37.1824 35.3266 36.516 35.4156 35.9251 35.1894C35.3568 34.9739 34.8065 34.7643 34.401 34.609C33.9699 34.4462 33.4965 34.4462 33.0654 34.609C32.6599 34.7643 32.1096 34.9739 31.5413 35.1894C30.9504 35.4156 30.2841 35.3266 29.773 34.9543C29.2605 34.5819 28.971 33.9774 29.0027 33.3443C29.0328 32.7382 29.0615 32.1503 29.0826 31.7161C29.1052 31.2563 28.959 30.8041 28.671 30.4468C28.3982 30.1077 28.0288 29.6493 27.6474 29.176C27.251 28.683 27.1288 28.0228 27.3248 27.4213C27.5208 26.8183 28.0062 26.3555 28.6183 26.1912C29.2047 26.0314 29.7715 25.8776 30.1921 25.7645C30.6353 25.6439 31.0197 25.365 31.2715 24.9806C31.5097 24.6158 31.8307 24.1229 32.1639 23.6148Z" fill="white"/>
<path fill-rule="evenodd" clip-rule="evenodd" d="M22.6013 46.498C23.2917 46.498 23.8519 47.0582 23.8519 47.7486C23.8519 48.4389 23.2917 48.9992 22.6013 48.9992C21.911 48.9992 21.3507 48.4389 21.3507 47.7486C21.3507 47.0582 21.911 46.498 22.6013 46.498ZM52.6163 13.9817H54.4922C54.8374 13.9817 55.1176 14.2618 55.1176 14.607V17.4247C55.1176 17.6873 54.9525 17.9212 54.7074 18.0112C52.4049 18.7015 50.7404 20.8376 50.7404 23.3614C50.7404 25.8801 52.4 28.015 54.6836 28.7316C54.9225 28.8091 55.09 29.0392 55.09 29.2981C55.09 29.3181 55.09 29.3369 55.0913 29.3556C55.1176 29.9372 55.1176 30.6 55.1176 31.1815C55.1176 31.4442 54.9525 31.678 54.7074 31.7681C52.4049 32.4584 50.7404 34.5945 50.7404 37.1183C50.7404 39.637 52.4 41.7718 54.6836 42.4885C54.9225 42.566 55.09 42.7961 55.09 43.055V43.0963C55.1176 43.9379 55.1176 44.9859 55.1176 45.8726C55.1176 46.2178 54.8374 46.498 54.4922 46.498H26.3532C25.6628 46.498 25.1026 47.0582 25.1026 47.7486C25.1026 48.4389 25.6628 48.9992 26.3532 48.9992H54.4922C56.2194 48.9992 57.6188 47.5998 57.6188 45.8726C57.6188 44.9647 57.6188 43.8904 57.5913 43.025C57.5813 41.6955 56.7146 40.515 55.4402 40.1048C55.4377 40.1048 55.4352 40.1035 55.4327 40.1022C54.1633 39.7045 53.2416 38.5177 53.2416 37.1183C53.2416 35.7263 54.1546 34.5432 55.4227 34.1655C55.4315 34.163 55.4402 34.1605 55.449 34.1568C56.7421 33.7416 57.6188 32.5397 57.6188 31.1815C57.6188 30.5725 57.6188 29.8796 57.5913 29.2681C57.5775 27.9349 56.7121 26.7568 55.4402 26.3479C55.4377 26.3479 55.4352 26.3466 55.4327 26.3454C54.1633 25.9477 53.2416 24.7608 53.2416 23.3614C53.2416 21.9694 54.1546 20.7864 55.4227 20.4087C55.4315 20.4062 55.4402 20.4036 55.449 20.3999C56.7421 19.9847 57.6188 18.7828 57.6188 17.4247V14.607C57.6188 12.8799 56.2194 11.4805 54.4922 11.4805H52.6163C51.926 11.4805 51.3657 12.0407 51.3657 12.7311C51.3657 13.4214 51.926 13.9817 52.6163 13.9817ZM17.5988 46.498V43.3614C17.5988 42.671 17.0385 42.1108 16.3482 42.1108C15.6578 42.1108 15.0976 42.671 15.0976 43.3614V46.498H5.71787C5.3727 46.498 5.09256 46.2178 5.09256 45.8726V43.055C5.09256 42.7924 5.25764 42.5585 5.50277 42.4685C7.80517 41.7781 9.46975 39.642 9.46975 37.1183C9.46975 34.5995 7.81017 32.4647 5.52653 31.7481C5.28766 31.6705 5.12008 31.4404 5.12008 31.1815C5.12008 31.1615 5.12007 31.1428 5.11882 31.124C5.09255 30.5425 5.09256 29.8797 5.09256 29.2981C5.09256 29.0355 5.25764 28.8016 5.50277 28.7116C7.80517 28.0212 9.46975 25.8852 9.46975 23.3614C9.46975 20.8426 7.81017 18.7078 5.52653 17.9912C5.28766 17.9137 5.12008 17.6835 5.12008 17.4247C5.12008 17.4109 5.12008 17.3972 5.12008 17.3834C5.09256 16.5417 5.09256 15.4937 5.09256 14.607C5.09256 14.2618 5.3727 13.9817 5.71787 13.9817H15.0976V18.3489C15.0976 19.0392 15.6578 19.5995 16.3482 19.5995C17.0385 19.5995 17.5988 19.0392 17.5988 18.3489V13.9817H48.8644C49.5548 13.9817 50.1151 13.4214 50.1151 12.7311C50.1151 12.0407 49.5548 11.4805 48.8644 11.4805C48.8644 11.4805 12.5463 11.4805 5.71787 11.4805C3.99076 11.4805 2.59131 12.8799 2.59131 14.607C2.59131 15.515 2.59131 16.5893 2.61883 17.4547C2.62883 18.7841 3.49552 19.9647 4.7699 20.3749C4.7724 20.3749 4.7749 20.3762 4.7774 20.3774C6.04679 20.7751 6.9685 21.9619 6.9685 23.3614C6.9685 24.7533 6.05554 25.9364 4.7874 26.3141C4.77865 26.3166 4.7699 26.3191 4.76114 26.3229C3.468 26.7381 2.59131 27.9399 2.59131 29.2981C2.59131 29.9072 2.59131 30.6 2.61883 31.2116C2.63258 32.5447 3.49802 33.7228 4.7699 34.1318C4.7724 34.1318 4.7749 34.133 4.7774 34.1343C6.04679 34.532 6.9685 35.7188 6.9685 37.1183C6.9685 38.5102 6.05554 39.6933 4.7874 40.071C4.77865 40.0735 4.7699 40.076 4.76114 40.0798C3.468 40.495 2.59131 41.6968 2.59131 43.055V45.8726C2.59131 47.5998 3.99076 48.9992 5.71787 48.9992H18.8494C19.5398 48.9992 20.1001 48.4389 20.1001 47.7486C20.1001 47.0582 19.5398 46.498 18.8494 46.498H17.5988ZM15.0976 33.3564V38.3589C15.0976 39.0492 15.6578 39.6095 16.3482 39.6095C17.0385 39.6095 17.5988 39.0492 17.5988 38.3589V33.3564C17.5988 32.666 17.0385 32.1058 16.3482 32.1058C15.6578 32.1058 15.0976 32.666 15.0976 33.3564ZM15.0976 23.3514V28.3539C15.0976 29.0442 15.6578 29.6045 16.3482 29.6045C17.0385 29.6045 17.5988 29.0442 17.5988 28.3539V23.3514C17.5988 22.661 17.0385 22.1008 16.3482 22.1008C15.6578 22.1008 15.0976 22.661 15.0976 23.3514Z" fill="#EB662B"/>
<path fill-rule="evenodd" clip-rule="evenodd" d="M31.2226 23.1678L30.3297 24.5343C30.2452 24.6625 30.117 24.756 29.9692 24.7952L28.3946 25.2221C27.375 25.4981 26.5651 26.2703 26.2378 27.2748C25.912 28.2778 26.1141 29.3788 26.7762 30.2008L27.8004 31.4723C27.8969 31.5914 27.9452 31.7422 27.9376 31.8946L27.8562 33.525C27.8049 34.5792 28.2875 35.5898 29.1412 36.2097C29.9964 36.8296 31.1049 36.9774 32.0913 36.6018L33.6162 36.0211C33.761 35.9668 33.9178 35.9668 34.0611 36.0211L35.5875 36.6018C36.5739 36.9774 37.6824 36.8296 38.5376 36.2097C39.3913 35.5898 39.8739 34.5792 39.8226 33.525L39.7412 31.8946C39.7336 31.7422 39.7819 31.5914 39.8784 31.4723L40.9025 30.2008C41.5647 29.3788 41.7668 28.2778 41.441 27.2748C41.1137 26.2703 40.3038 25.4981 39.2842 25.2221L37.7096 24.7952C37.5618 24.756 37.4336 24.6625 37.3491 24.5343L36.4562 23.1678C35.8801 22.284 34.8952 21.7515 33.8394 21.7515C32.7836 21.7515 31.7987 22.284 31.2226 23.1678ZM33.316 24.5358C33.4322 24.3593 33.6282 24.2523 33.8394 24.2523C34.0506 24.2523 34.2466 24.3593 34.3628 24.5358L35.2556 25.9023C35.6749 26.5448 36.316 27.0093 37.055 27.2099L38.6311 27.6368C38.8347 27.6926 38.9961 27.8464 39.061 28.047C39.1273 28.2476 39.0866 28.4678 38.9539 28.6322L37.9298 29.9037C37.4502 30.5009 37.2043 31.2536 37.2435 32.0198L37.3235 33.6487C37.334 33.8598 37.2375 34.0619 37.0671 34.1856C36.8966 34.3108 36.6749 34.3395 36.4773 34.264L34.9525 33.6834C34.2346 33.4119 33.4442 33.4119 32.7263 33.6834L31.2015 34.264C31.0039 34.3395 30.7822 34.3108 30.6117 34.1856C30.4413 34.0619 30.3448 33.8598 30.3553 33.6487L30.4353 32.0198C30.4745 31.2536 30.2286 30.5009 29.749 29.9037L28.7249 28.6322C28.5922 28.4678 28.5515 28.2476 28.6178 28.047C28.6827 27.8464 28.8441 27.6926 29.0477 27.6368L30.6238 27.2099C31.3628 27.0093 32.0039 26.5448 32.4232 25.9023L33.316 24.5358Z" fill="#EB662B"/>
</g>
</g>
<defs>
<clipPath id="clip0_1_104">
<rect width="60" height="60" fill="white"/>
</clipPath>
<clipPath id="clip1_1_104">
<rect width="60" height="60" fill="white"/>
</clipPath>
</defs>
</svg>
